<svg width="372" height="367" viewBox="0 0 372 367" fill="none" xmlns="http://www.w3.org/2000/svg">
<g filter="url(#filter0_d_28_120)">
<path d="M114.079 38.1585C-38.984 38.5346 -15.5415 221.375 89.5012 222.553C90.0535 222.559 90.5222 223.006 90.5222 223.558V284.455C90.5222 284.779 90.6764 285.081 90.9414 285.267C152.591 328.551 279.944 303.369 281.354 284.971C282.465 270.481 285.485 238.382 286.932 223.356C286.977 222.884 287.364 222.52 287.835 222.466C360.588 214.131 370.393 150.099 366.169 119.01C359.451 51.5999 291.21 37.0264 256.93 38.1204C256.362 38.1385 255.915 37.7124 255.816 37.1525C252.813 20.2136 178.493 -35.3119 114.861 37.8027C114.67 38.0218 114.37 38.1578 114.079 38.1585Z" fill="white"/>
<path d="M97.5897 341.049V319.088C97.5897 318.376 98.3134 317.893 98.9734 318.159C156.791 341.456 221.97 338.484 274.333 318.132C274.992 317.876 275.7 318.361 275.7 319.067V341.033C275.7 341.442 275.449 341.811 275.069 341.962C202.256 370.918 127.27 354.197 98.1769 341.958C97.8079 341.803 97.5897 341.45 97.5897 341.049Z" fill="white"/>
<path d="M114.079 38.1585C-38.984 38.5346 -15.5415 221.375 89.5012 222.553C90.0535 222.559 90.5222 223.006 90.5222 223.558V284.455C90.5222 284.779 90.6764 285.081 90.9414 285.267C152.591 328.551 279.944 303.369 281.354 284.971C282.465 270.481 285.485 238.382 286.932 223.356C286.977 222.884 287.364 222.52 287.835 222.466C360.588 214.131 370.393 150.099 366.169 119.01C359.451 51.5999 291.21 37.0264 256.93 38.1204C256.362 38.1385 255.915 37.7124 255.816 37.1525C252.813 20.2136 178.493 -35.3119 114.861 37.8027C114.67 38.0218 114.37 38.1578 114.079 38.1585Z" stroke="white"/>
<path d="M97.5897 341.049V319.088C97.5897 318.376 98.3134 317.893 98.9734 318.159C156.791 341.456 221.97 338.484 274.333 318.132C274.992 317.876 275.7 318.361 275.7 319.067V341.033C275.7 341.442 275.449 341.811 275.069 341.962C202.256 370.918 127.27 354.197 98.1769 341.958C97.8079 341.803 97.5897 341.45 97.5897 341.049Z" stroke="white"/>
</g>
<defs>
<filter id="filter0_d_28_120" x="0.5" y="0.500183" width="371" height="366" filterUnits="userSpaceOnUse" color-interpolation-filters="sRGB">
<feFlood flood-opacity="0" result="BackgroundImageFix"/>
<feColorMatrix in="SourceAlpha" type="matrix" values="0 0 0 0 0 0 0 0 0 0 0 0 0 0 0 0 0 0 127 0" result="hardAlpha"/>
<feOffset dy="4"/>
<feGaussianBlur stdDeviation="2"/>
<feComposite in2="hardAlpha" operator="out"/>
<feColorMatrix type="matrix" values="0 0 0 0 0 0 0 0 0 0 0 0 0 0 0 0 0 0 0.25 0"/>
<feBlend mode="normal" in2="BackgroundImageFix" result="effect1_dropShadow_28_120"/>
<feBlend mode="normal" in="SourceGraphic" in2="effect1_dropShadow_28_120" result="shape"/>
</filter>
</defs>
</svg>
